HIERARCHY
ROOT Hips
{
    OFFSET   0.000000   0.000000   0.000000
    CHANNELS 6 Xposition Yposition Zposition Zrotation Xrotation Yrotation
    JOINT Chest
    {
        OFFSET   0.000000   8.007230   0.000000
        CHANNELS 3 Zrotation Xrotation Yrotation
        JOINT Chest2
        {
            OFFSET   0.000000  22.077100   0.000000
            CHANNELS 3 Zrotation Xrotation Yrotation
            JOINT Neck
            {
                OFFSET   0.000000  23.254800   0.000000
                CHANNELS 3 Zrotation Xrotation Yrotation
                JOINT Head
                {
                    OFFSET   0.000010  14.370000   1.956600
                    CHANNELS 3 Zrotation Xrotation Yrotation
                    End Site
                    {
                        OFFSET   0.000000  19.566000   0.000000
                    }
                }
            }
            JOINT LeftCollar
            {
                OFFSET   3.911900  19.017000  -0.467062
                CHANNELS 3 Zrotation Xrotation Yrotation
                JOINT LeftShoulder
                {
                    OFFSET  10.383700   0.000000   0.000000
                    CHANNELS 3 Zrotation Xrotation Yrotation
                    JOINT LeftElbow
                    {
                        OFFSET  26.662100   0.001193   0.000835
                        CHANNELS 3 Zrotation Xrotation Yrotation
                        JOINT LeftWrist
                        {
                            OFFSET  28.869000  -0.000058  -0.000075
                            CHANNELS 3 Zrotation Xrotation Yrotation
                            JOINT LeftFinger0
                            {
                                OFFSET   2.044660  -2.323460   3.252850
                                CHANNELS 3 Zrotation Xrotation Yrotation
                                JOINT LeftFinger01
                                {
                                    OFFSET   3.088130   0.000000   0.000000
                                    CHANNELS 3 Zrotation Xrotation Yrotation
                                    JOINT LeftFinger02
                                    {
                                        OFFSET   2.639450   0.000000   0.000000
                                        CHANNELS 3 Zrotation Xrotation Yrotation
                                        End Site
                                        {
                                            OFFSET   2.582190   0.000000   0.000000
                                        }
                                    }
                                }
                            }
                            JOINT LeftFinger1
                            {
                                OFFSET   8.364480   0.000000   3.252850
                                CHANNELS 3 Zrotation Xrotation Yrotation
                                JOINT LeftFinger11
                                {
                                    OFFSET   4.646920   0.000000   0.000000
                                    CHANNELS 3 Zrotation Xrotation Yrotation
                                    JOINT LeftFinger12
                                    {
                                        OFFSET   2.323460   0.000000   0.000000
                                        CHANNELS 3 Zrotation Xrotation Yrotation
                                        End Site
                                        {
                                            OFFSET   2.273050   0.000000   0.000000
                                        }
                                    }
                                }
                            }
                            JOINT LeftFinger2
                            {
                                OFFSET   8.364490   0.000016   1.078090
                                CHANNELS 3 Zrotation Xrotation Yrotation
                                JOINT LeftFinger21
                                {
                                    OFFSET   5.111620   0.000000   0.000000
                                    CHANNELS 3 Zrotation Xrotation Yrotation
                                    JOINT LeftFinger22
                                    {
                                        OFFSET   2.788150   0.000012   0.000000
                                        CHANNELS 3 Zrotation Xrotation Yrotation
                                        End Site
                                        {
                                            OFFSET   2.727660   0.000000   0.000000
                                        }
                                    }
                                }
                            }
                            JOINT LeftFinger3
                            {
                                OFFSET   7.899780   0.000014  -1.078090
                                CHANNELS 3 Zrotation Xrotation Yrotation
                                JOINT LeftFinger31
                                {
                                    OFFSET   4.646930   0.000000   0.000000
                                    CHANNELS 3 Zrotation Xrotation Yrotation
                                    JOINT LeftFinger32
                                    {
                                        OFFSET   2.323470   0.000000   0.000000
                                        CHANNELS 3 Zrotation Xrotation Yrotation
                                        End Site
                                        {
                                            OFFSET   2.273050   0.000000   0.000000
                                        }
                                    }
                                }
                            }
                            JOINT LeftFinger4
                            {
                                OFFSET   7.435090   0.000000  -3.252850
                                CHANNELS 3 Zrotation Xrotation Yrotation
                                JOINT LeftFinger41
                                {
                                    OFFSET   3.717550   0.000000   0.000000
                                    CHANNELS 3 Zrotation Xrotation Yrotation
                                    JOINT LeftFinger42
                                    {
                                        OFFSET   1.858770   0.000000   0.000000
                                        CHANNELS 3 Zrotation Xrotation Yrotation
                                        End Site
                                        {
                                            OFFSET   1.818440   0.000000   0.000000
                                        }
                                    }
                                }
                            }
                        }
                    }
                }
            }
            JOINT RightCollar
            {
                OFFSET  -3.911900  19.017000  -0.467063
                CHANNELS 3 Zrotation Xrotation Yrotation
                JOINT RightShoulder
                {
                    OFFSET -10.383700   0.000023   0.000000
                    CHANNELS 3 Zrotation Xrotation Yrotation
                    JOINT RightElbow
                    {
                        OFFSET -26.662100   0.001246   0.001011
                        CHANNELS 3 Zrotation Xrotation Yrotation
                        JOINT RightWrist
                        {
                            OFFSET -28.869000  -0.000026  -0.000078
                            CHANNELS 3 Zrotation Xrotation Yrotation
                            JOINT RightFinger0
                            {
                                OFFSET  -2.044660  -2.323490   3.252850
                                CHANNELS 3 Zrotation Xrotation Yrotation
                                JOINT RightFinger01
                                {
                                    OFFSET  -3.088130   0.000000   0.000000
                                    CHANNELS 3 Zrotation Xrotation Yrotation
                                    JOINT RightFinger02
                                    {
                                        OFFSET  -2.639460   0.000000   0.000000
                                        CHANNELS 3 Zrotation Xrotation Yrotation
                                        End Site
                                        {
                                            OFFSET  -2.582190   0.000000   0.000000
                                        }
                                    }
                                }
                            }
                            JOINT RightFinger1
                            {
                                OFFSET  -8.364480   0.000000   3.252850
                                CHANNELS 3 Zrotation Xrotation Yrotation
                                JOINT RightFinger11
                                {
                                    OFFSET  -4.646920   0.000000   0.000000
                                    CHANNELS 3 Zrotation Xrotation Yrotation
                                    JOINT RightFinger12
                                    {
                                        OFFSET  -2.323470   0.000000   0.000000
                                        CHANNELS 3 Zrotation Xrotation Yrotation
                                        End Site
                                        {
                                            OFFSET  -2.273050   0.000000   0.000000
                                        }
                                    }
                                }
                            }
                            JOINT RightFinger2
                            {
                                OFFSET  -8.364480   0.000000   1.078090
                                CHANNELS 3 Zrotation Xrotation Yrotation
                                JOINT RightFinger21
                                {
                                    OFFSET  -5.111620   0.000000   0.000000
                                    CHANNELS 3 Zrotation Xrotation Yrotation
                                    JOINT RightFinger22
                                    {
                                        OFFSET  -2.788160   0.000000   0.000000
                                        CHANNELS 3 Zrotation Xrotation Yrotation
                                        End Site
                                        {
                                            OFFSET  -2.727660   0.000000   0.000000
                                        }
                                    }
                                }
                            }
                            JOINT RightFinger3
                            {
                                OFFSET  -7.899780   0.000000  -1.078090
                                CHANNELS 3 Zrotation Xrotation Yrotation
                                JOINT RightFinger31
                                {
                                    OFFSET  -4.646930   0.000000   0.000000
                                    CHANNELS 3 Zrotation Xrotation Yrotation
                                    JOINT RightFinger32
                                    {
                                        OFFSET  -2.323470   0.000000   0.000000
                                        CHANNELS 3 Zrotation Xrotation Yrotation
                                        End Site
                                        {
                                            OFFSET  -2.273050   0.000000   0.000000
                                        }
                                    }
                                }
                            }
                            JOINT RightFinger4
                            {
                                OFFSET  -7.435090   0.000000  -3.252850
                                CHANNELS 3 Zrotation Xrotation Yrotation
                                JOINT RightFinger41
                                {
                                    OFFSET  -3.717550   0.000000   0.000000
                                    CHANNELS 3 Zrotation Xrotation Yrotation
                                    JOINT RightFinger42
                                    {
                                        OFFSET  -1.858760   0.000000   0.000000
                                        CHANNELS 3 Zrotation Xrotation Yrotation
                                        End Site
                                        {
                                            OFFSET  -1.818440   0.000000   0.000000
                                        }
                                    }
                                }
                            }
                        }
                    }
                }
            }
        }
    }
    JOINT LeftHip
    {
        OFFSET   9.783010   0.000000   0.000000
        CHANNELS 3 Zrotation Xrotation Yrotation
        JOINT LeftKnee
        {
            OFFSET   0.000073 -41.789100   0.001749
            CHANNELS 3 Zrotation Xrotation Yrotation
            JOINT LeftAnkle
            {
                OFFSET   0.000111 -41.133200  -0.000179
                CHANNELS 3 Zrotation Xrotation Yrotation
                JOINT LeftToe
                {
                    OFFSET   0.000000  -6.358960  14.674500
                    CHANNELS 3 Zrotation Xrotation Yrotation
                    End Site
                    {
                        OFFSET   0.000000   0.000000   3.913200
                    }
                }
            }
        }
    }
    JOINT RightHip
    {
        OFFSET  -9.783010   0.000000   0.000000
        CHANNELS 3 Zrotation Xrotation Yrotation
        JOINT RightKnee
        {
            OFFSET   0.000424 -41.789200   0.005205
            CHANNELS 3 Zrotation Xrotation Yrotation
            JOINT RightAnkle
            {
                OFFSET   0.000000 -41.133200  -0.000155
                CHANNELS 3 Zrotation Xrotation Yrotation
                JOINT RightToe
                {
                    OFFSET   0.000000  -6.358960  14.674500
                    CHANNELS 3 Zrotation Xrotation Yrotation
                    End Site
                    {
                        OFFSET   0.000000   0.000000   3.913200
                    }
                }
            }
        }
    }
}
MOTION
Frames: 6
Frame Time:   0.016667
  9.708500  88.772300  -1.593340  12.006500 -17.014100  35.329900   0.582395  12.265100  -2.381520   1.763100  24.493000  -5.074880   6.699070   0.174737  -0.020432  11.006900   0.340474 -26.492100  -1.274270   1.029670   2.689750 -68.021400  26.363400 -14.334000  -4.739800  -5.744900 -15.385900  15.206800 -11.024700   4.256670  49.662300  39.702300 -79.548600 -20.872400   0.002471   0.003685  -5.436220  -0.002591  -0.001495 -30.241200   4.241360  -7.229450 -24.962600  -0.003027   0.002941 -17.473800  -0.003548   0.003761 -28.289000  -0.481310   0.894460 -34.154200  -0.005908   0.002674 -22.746700  -0.001618  -0.002335 -28.029400  -0.477254   0.896627 -32.219600  -0.004159   0.001881 -21.458300  -0.002469   0.001655 -29.866700  -0.505767   0.880906 -44.806300  -0.000334   0.003835 -29.841000  -0.004742   0.000805   6.547570   0.513335   4.487760  70.373900  27.381800 -22.874700   5.087920   0.828580  11.219500   8.589780   7.705610 -11.510200 -36.933600  24.160500  66.107400  -9.951660   0.017250  -0.148620  -9.975830   0.018161  -0.072384  -0.910300  -0.253091  14.463500  -0.000016  -0.018773  -0.048134  -0.135398  -0.013419  -0.033637  -1.181210   0.003809   0.010581  -0.000010  -0.015300  -0.035597  -0.218882  -0.010167  -0.023719 -18.462000   4.984640 -14.686300  -0.000000   0.000224   0.000244  -0.000000   0.000224   0.000227   8.693450  -4.630190 -28.149400  14.700400  -0.028878  -0.009796   9.790460  -0.020116   0.004699  -5.650490  21.496000   1.183600  -0.679392   0.987575  -5.907730 -11.868300   1.038700 -17.009600   0.000000   0.000000   0.000000  -2.592000  20.022600 -10.598200  -2.680410  17.445200 -21.017800   4.010150 -12.679200 -16.976800   0.000000   0.000000   0.000000
  9.596480  88.796700  -1.526570  11.615900 -17.151900  34.482400   0.584314  12.223400  -2.399720   1.769630  24.409200  -5.111050   6.668210   0.119404  -0.013860  10.950600   0.232697 -26.120200  -1.252790   1.110170   2.734850 -68.255400  26.004500 -13.916400  -4.869190  -5.586620 -15.484100  15.133300 -10.942500   4.153840  49.763300  39.776200 -79.628900 -20.859700   0.002475   0.003683  -5.429870  -0.002590  -0.001502 -30.201800   4.270000  -7.288800 -24.933800  -0.003029   0.002940 -17.453700  -0.003546   0.003761 -28.287300  -0.466655   0.867399 -34.139100  -0.005911   0.002672 -22.736600  -0.001618  -0.002334 -28.026700  -0.462705   0.869508 -32.200900  -0.004158   0.001883 -21.445800  -0.002469   0.001655 -29.854600  -0.490204   0.854378 -44.787900  -0.000334   0.003836 -29.828700  -0.004741   0.000783   6.522970   0.573266   4.380880  70.493700  26.535400 -22.687800   4.846040  -0.547275  10.928300  11.353500   4.010150 -10.962500 -37.666200  25.022500  66.365800  -7.180120   0.002418  -0.148369  -8.590070   0.010455  -0.073381  -0.089012  -0.061014  14.789700   0.148912  -0.037805  -0.074719   0.028075  -0.027307  -0.051679  -0.643232  -0.006510   0.500644   0.031624  -0.029556  -0.057034  -0.153290  -0.020009  -0.037697 -17.742800   4.774810 -14.770400   0.017532   0.000122   0.000206   0.011676   0.000086   0.000191   9.011000  -4.596110 -27.214400  15.063700  -0.047650  -0.012474  10.032500  -0.032730   0.004645  -5.462210  21.444800   1.274060  -0.688932   0.969772  -5.638920 -11.710100   0.843784 -16.652800  -0.000000   0.000000   0.000000  -2.412420  19.837500 -10.525700  -2.765700  17.339200 -20.665500   3.999970 -12.633700 -16.635000  -0.000000   0.000000   0.000000
  9.464830  88.823200  -1.457930  11.169600 -17.294500  33.541300   0.583394  12.166500  -2.406550   1.764950  24.295400  -5.122720   6.632020   0.070767  -0.008154  10.897400   0.137895 -25.720500  -1.241640   1.190040   2.765200 -68.488000  25.681000 -13.487600  -4.983650  -5.437520 -15.583400  15.071100 -10.874700   4.058620  49.863600  39.854200 -79.717200 -20.851800   0.002476   0.003683  -5.425910  -0.002588  -0.001508 -30.168800   4.298910  -7.347010 -24.910100  -0.003031   0.002939 -17.437100  -0.003545   0.003761 -28.286500  -0.452083   0.840440 -34.131700  -0.005913   0.002669 -22.731700  -0.001619  -0.002333 -28.025500  -0.448250   0.842489 -32.192400  -0.004158   0.001886 -21.440100  -0.002469   0.001655 -29.849400  -0.474849   0.827910 -44.779900  -0.000333   0.003837 -29.823400  -0.004740   0.000761   6.471630   0.619819   4.264090  70.489400  25.601400 -22.455500   4.652760  -1.938010  10.601500  13.984900   1.000840 -10.021900 -38.531500  26.117400  66.807700  -3.923220  -0.017176  -0.146612  -6.961610  -0.001317  -0.073524   1.049060   0.234553  15.214800   0.772908  -0.052010  -0.089398   0.541016  -0.037992  -0.061523   0.390429  -0.012735   1.078590   0.253178  -0.043006  -0.069318   0.168605  -0.029404  -0.045646 -15.846200   4.186910 -14.779400   0.035065   0.000062   0.000096   0.023352   0.000000   0.000074   9.566640  -4.601590 -25.882400  15.824600  -0.058040  -0.012856  10.539200  -0.039538   0.004490  -5.242570  21.371300   1.346420  -0.698282   0.956112  -5.348040 -11.554700   0.631621 -16.231900   0.000000   0.000000  -0.000000  -2.200020  19.622900 -10.451400  -2.858420  17.207200 -20.258300   3.958260 -12.559800 -16.276300   0.000000   0.000000   0.000000
  9.319380  88.849300  -1.391580  10.652600 -17.438100  32.501200   0.593464  12.092400  -2.402190   1.779570  24.146700  -5.112590   6.583430   0.025591  -0.002918  10.820700   0.049788 -25.298600  -1.247100   1.261480   2.769190 -68.706600  25.411900 -13.044200  -5.076560  -5.304680 -15.682700  15.000100 -10.830900   3.967810  49.975600  39.946800 -79.832400 -20.846100   0.002469   0.003691  -5.423050  -0.002584  -0.001504 -30.141800   4.332120  -7.411130 -24.891700  -0.003031   0.002936 -17.424200  -0.003547   0.003760 -28.285700  -0.430804   0.800892 -34.121600  -0.005912   0.002669 -22.725000  -0.001619  -0.002331 -28.025000  -0.427157   0.802849 -32.186600  -0.004157   0.001884 -21.436200  -0.002469   0.001655 -29.845900  -0.452476   0.789033 -44.773900  -0.000333   0.003836 -29.819400  -0.004740   0.000749   6.392760   0.637279   4.136700  70.292700  24.688400 -22.001100   4.551050  -3.206820  10.287600  16.387400  -1.038290  -8.974830 -39.445600  27.451500  67.615100  -0.598207  -0.026541  -0.098234  -5.299100  -0.009879  -0.049931   2.602810   0.681239  15.721000   2.084780  -0.053332  -0.073490   1.467790  -0.039173  -0.050329   1.429110  -0.001148   1.638300   1.188930  -0.046788  -0.058805   0.856727  -0.032106  -0.039620 -12.797200   3.154830 -14.152800   0.017532   0.000748  -0.000565  -0.149197   0.000655  -0.000499  10.298400  -4.600110 -24.227900  16.843300  -0.040622  -0.009148  11.217600  -0.027589   0.002780  -4.998380  21.275300   1.370380  -0.681150   0.928457  -5.048340 -11.418500   0.407333 -15.702600   0.000000   0.000000  -0.000000  -1.963740  19.358000 -10.436600  -2.958670  17.062300 -19.740800   3.890100 -12.453600 -15.889900   0.000000   0.000000   0.000000
  9.154570  88.878400  -1.326150  10.082000 -17.589200  31.365200   0.608233  12.014300  -2.390060   1.803300  23.990400  -5.087530   6.529200  -0.019516   0.002250  10.727400  -0.038092 -24.815600  -1.261020   1.319370   2.773180 -68.879700  25.192000 -12.613000  -5.165540  -5.216660 -15.781100  14.927100 -10.785700   3.881020  50.097100  40.044000 -79.952000 -20.838600   0.002463   0.003698  -5.419300  -0.002581  -0.001498 -30.111000   4.364910  -7.475870 -24.870100  -0.003032   0.002934 -17.409100  -0.003549   0.003758 -28.283500  -0.406739   0.756170 -34.099800  -0.005910   0.002669 -22.710500  -0.001619  -0.002330 -28.022900  -0.403301   0.758026 -32.170400  -0.004156   0.001883 -21.425500  -0.002470   0.001654 -29.834500  -0.427114   0.745114 -44.756500  -0.000333   0.003835 -29.807800  -0.004741   0.000715   6.317500   0.643081   4.062470  69.929400  23.676900 -21.349600   4.488390  -4.400180  10.010200  18.391600  -2.415940  -7.848590 -40.400700  28.945500  68.740100   2.558460  -0.030000  -0.033949  -3.720770  -0.014374  -0.017638   4.495140   1.266170  16.333500   3.800480  -0.054654  -0.050402   2.660330  -0.040355  -0.033054   2.780310   0.069474   2.399800   2.750050  -0.053943  -0.048291   1.831530  -0.037402  -0.030896  -9.053270   1.961920 -12.685300   0.000000   0.001434  -0.004747  -0.321746   0.001311  -0.004051  11.081700  -4.541110 -22.230400  17.880800  -0.023204  -0.002363  11.908600  -0.015640   0.001226  -4.732460  21.171500   1.392210  -0.642846   0.902840  -4.719030 -11.287700   0.171813 -15.124000   0.000000   0.000000   0.000000  -1.713970  19.077200 -10.421100  -3.053680  16.884500 -19.192900   3.802070 -12.311600 -15.438000   0.000000   0.000000  -0.000000
  8.965170  88.913800  -1.261470   9.467690 -17.760300  30.134900   0.612286  11.948600  -2.379420   1.805180  23.859000  -5.063200   6.474890  -0.066815   0.007677  10.637600  -0.130317 -24.204700  -1.292870   1.356670   2.815520 -68.959400  25.026600 -12.221300  -5.266930  -5.197430 -15.878700  14.845800 -10.704800   3.793210  50.239800  40.145700 -80.065800 -20.822700   0.002464   0.003699  -5.411350  -0.002578  -0.001492 -30.062500   4.392980  -7.537760 -24.834000  -0.003031   0.002934 -17.383800  -0.003550   0.003760 -28.277500  -0.381278   0.709002 -34.047800  -0.005908   0.002668 -22.675900  -0.001620  -0.002330 -28.015700  -0.378040   0.710758 -32.121400  -0.004155   0.001883 -21.392900  -0.002469   0.001655 -29.799200  -0.400043   0.698967 -44.703300  -0.000333   0.003837 -29.772400  -0.004742  -0.008049   6.285600   0.652018   4.125090  69.455800  22.443800 -20.651600   4.436300  -5.500230   9.821290  19.891400  -3.270960  -6.799480 -41.155200  30.655300  70.368200   5.042920  -0.004022  -0.011917  -2.478530  -0.001654  -0.006432   6.741950   1.990020  17.082900   5.727460  -0.077969  -0.039435   4.009240  -0.057174  -0.021836   4.612210   0.187669   3.593920   4.570880  -0.103581  -0.052651   3.044220  -0.071693  -0.027393  -4.949330   0.736637 -10.653300   0.079371  -0.072936  -0.039720  -0.203970  -0.049530  -0.027445  11.632200  -4.355700 -19.969100  18.454400  -0.079989   0.003371  12.290600  -0.051629   0.013606  -4.443180  21.076700   1.456140  -0.604439   0.896912  -4.342580 -11.173700  -0.076631 -14.553200   0.000000   0.000000   0.000000  -1.453670  18.805900 -10.402500  -3.122420  16.662600 -18.694000   3.700810 -12.124000 -14.859600  -0.000000   0.000000   0.000000
